<svg width="24" height="24" viewBox="0 0 24 24" fill="none" xmlns="http://www.w3.org/2000/svg">
<rect x="1" y="1" width="22" height="22" rx="3" fill="#EDEDED" stroke="#667099" stroke-width="2"/>
<path d="M15.3243 7L15.5049 7.72627C15.6519 8.31752 16.2682 8.66124 16.8485 8.47557V8.47557C17.6643 8.21455 18.4341 8.98436 18.1731 9.80017L18.1235 9.95526C17.9541 10.4845 18.1919 11.0586 18.6859 11.3131V11.3131C19.508 11.7366 19.508 12.912 18.6859 13.3355V13.3355C18.1919 13.59 17.9541 14.1641 18.1235 14.6934L18.1731 14.8485C18.4341 15.6643 17.6643 16.4341 16.8485 16.1731V16.1731C16.2682 15.9874 15.6519 16.3311 15.5049 16.9224L15.3243 17.6486" stroke="#667099" stroke-width="2" stroke-linecap="round"/>
<path d="M6 7.87891H11" stroke="#667099" stroke-width="2" stroke-linecap="round"/>
<path d="M6 11.8789H11" stroke="#667099" stroke-width="2" stroke-linecap="round"/>
<path d="M6 15.8789H11" stroke="#667099" stroke-width="2" stroke-linecap="round"/>
</svg>
