<svg width="31" height="24" viewBox="0 0 31 24" fill="none" xmlns="http://www.w3.org/2000/svg">
<rect x="1" y="1" width="28.8108" height="22" rx="3" fill="#EDEDED" stroke="#888888" stroke-width="2"/>
<path d="M18.8107 5.18945H24.6485" stroke="#939393" stroke-width="2" stroke-linecap="round"/>
<path d="M18.8107 8.75586H21.4053" stroke="#939393" stroke-width="2" stroke-linecap="round"/>
<path d="M4.54028 5.51367H10.3781" stroke="#939393" stroke-width="2" stroke-linecap="round"/>
<path d="M4.54041 9.08203H13.6215" stroke="#939393" stroke-width="2" stroke-linecap="round"/>
<path d="M4.54041 12.6484H13.6215" stroke="#939393" stroke-width="2" stroke-linecap="round"/>
<path d="M4.54041 16.2168H13.6215" stroke="#939393" stroke-width="2" stroke-linecap="round"/>
<path d="M23.4773 12.5448C23.6267 12.0183 24.3729 12.0183 24.5223 12.5448V12.5448C24.618 12.882 25.0033 13.0416 25.3094 12.8708V12.8708C25.7873 12.6041 26.315 13.1318 26.0483 13.6097V13.6097C25.8775 13.9158 26.0371 14.3012 26.3744 14.3968V14.3968C26.9009 14.5462 26.9009 15.2925 26.3744 15.4418V15.4418C26.0371 15.5375 25.8775 15.9229 26.0483 16.229V16.229C26.315 16.7069 25.7873 17.2346 25.3094 16.9679V16.9679C25.0033 16.7971 24.618 16.9567 24.5223 17.2939V17.2939C24.3729 17.8204 23.6267 17.8204 23.4773 17.2939V17.2939C23.3816 16.9567 22.9963 16.7971 22.6902 16.9679V16.9679C22.2122 17.2346 21.6846 16.7069 21.9512 16.229V16.229C22.1221 15.9229 21.9624 15.5375 21.6252 15.4418V15.4418C21.0987 15.2925 21.0987 14.5462 21.6252 14.3968V14.3968C21.9624 14.3012 22.1221 13.9158 21.9512 13.6097V13.6097C21.6846 13.1318 22.2122 12.6041 22.6902 12.8708V12.8708C22.9963 13.0416 23.3816 12.882 23.4773 12.5448V12.5448Z" fill="#EDEDED" stroke="#939393" stroke-width="2"/>
<line x1="16.243" y1="0.324219" x2="16.243" y2="23.3512" stroke="#888888" stroke-width="2"/>
</svg>
