<?xml version="1.0" encoding="utf-8"?>
<!-- Generator: Adobe Illustrator 26.0.0, SVG Export Plug-In . SVG Version: 6.00 Build 0)  -->
<svg version="1.1" xmlns="http://www.w3.org/2000/svg" xmlns:xlink="http://www.w3.org/1999/xlink" x="0px" y="0px"
	 viewBox="0 0 24 24" style="enable-background:new 0 0 24 24;" xml:space="preserve">
<style type="text/css">
	.st0{fill:none;stroke:#FFFFFF;stroke-width:2.126;stroke-linecap:round;}
</style>
<g id="Слой_2">
	<g>
		<path class="st0" d="M8.1,22.5H3c-1,0-1.7-0.8-1.7-1.7v-5c0-1,0.8-1.7,1.7-1.7h5c1,0,1.7,0.8,1.7,1.7v5C9.8,21.7,9,22.5,8.1,22.5z
			"/>
		<path class="st0" d="M21.1,22.5h-5c-1,0-1.7-0.8-1.7-1.7v-5c0-1,0.8-1.7,1.7-1.7h5c1,0,1.7,0.8,1.7,1.7v5
			C22.8,21.7,22,22.5,21.1,22.5z"/>
	</g>
	<g>
		<path class="st0" d="M8,9.8H3C2,9.8,1.3,9,1.3,8V3C1.3,2,2,1.3,3,1.3h5C9,1.3,9.8,2,9.8,3v5C9.8,9,9,9.8,8,9.8z"/>
		<path class="st0" d="M21,9.8h-5c-1,0-1.7-0.8-1.7-1.7V3c0-1,0.8-1.7,1.7-1.7h5c1,0,1.7,0.8,1.7,1.7v5C22.7,9,22,9.8,21,9.8z"/>
	</g>
</g>
<g id="_Слой_1">
</g>
</svg>
