<?xml version="1.0" encoding="utf-8"?>
<!-- Generator: Adobe Illustrator 26.0.0, SVG Export Plug-In . SVG Version: 6.00 Build 0)  -->
<svg version="1.1" xmlns="http://www.w3.org/2000/svg" xmlns:xlink="http://www.w3.org/1999/xlink" x="0px" y="0px"
	 viewBox="0 0 24 24" style="enable-background:new 0 0 24 24;" xml:space="preserve">
<style type="text/css">
	.st0{fill:none;stroke:#FFFFFF;stroke-width:2.126;stroke-linecap:round;}
</style>
<g id="Слой_2">
	<path class="st0" d="M4.3,10.5H2.2c-0.7,0-1.4-0.6-1.4-1.4V2.6c0-0.7,0.6-1.4,1.4-1.4h2.1c0.7,0,1.4,0.6,1.4,1.4v6.5
		C5.7,9.8,5.1,10.5,4.3,10.5z"/>
	<path class="st0" d="M13.2,10.5h-2.1c-0.7,0-1.4-0.6-1.4-1.4V2.6c0-0.7,0.6-1.4,1.4-1.4h2.1c0.7,0,1.4,0.6,1.4,1.4v6.5
		C14.6,9.8,13.9,10.5,13.2,10.5z"/>
	<path class="st0" d="M21.8,10.7h-2.1c-0.7,0-1.4-0.6-1.4-1.4V2.8c0-0.7,0.6-1.4,1.4-1.4h2.1c0.7,0,1.4,0.6,1.4,1.4v6.5
		C23.1,10.1,22.5,10.7,21.8,10.7z"/>
	<path class="st0" d="M4.3,22.8H2.2c-0.7,0-1.4-0.6-1.4-1.4V15c0-0.7,0.6-1.4,1.4-1.4h2.1c0.7,0,1.4,0.6,1.4,1.4v6.5
		C5.7,22.2,5.1,22.8,4.3,22.8z"/>
	<path class="st0" d="M13.2,22.8h-2.1c-0.7,0-1.4-0.6-1.4-1.4V15c0-0.7,0.6-1.4,1.4-1.4h2.1c0.7,0,1.4,0.6,1.4,1.4v6.5
		C14.6,22.2,13.9,22.8,13.2,22.8z"/>
	<path class="st0" d="M21.9,23h-2.1c-0.7,0-1.4-0.6-1.4-1.4v-6.5c0-0.7,0.6-1.4,1.4-1.4h2.1c0.7,0,1.4,0.6,1.4,1.4v6.5
		C23.2,22.4,22.6,23,21.9,23z"/>
</g>
<g id="_Слой_1">
</g>
</svg>
