<svg width="24" height="24" viewBox="0 0 24 24" fill="none" xmlns="http://www.w3.org/2000/svg">
<rect x="1" y="1" width="22" height="22" rx="3" fill="#F6F6F9" stroke="#3D435C" stroke-width="2"/>
<path d="M11.1409 6.63797C11.7101 5.5331 13.2899 5.5331 13.8591 6.63797V6.63797C14.2011 7.30187 14.9728 7.62149 15.6841 7.3939V7.3939C16.8678 7.01515 17.9849 8.13217 17.6061 9.31594V9.31594C17.3785 10.0272 17.6981 10.7989 18.362 11.1409V11.1409C19.4669 11.7101 19.4669 13.2899 18.362 13.8591V13.8591C17.6981 14.2011 17.3785 14.9728 17.6061 15.6841V15.6841C17.9849 16.8678 16.8678 17.9849 15.6841 17.6061V17.6061C14.9728 17.3785 14.2011 17.6981 13.8591 18.362V18.362C13.2899 19.4669 11.7101 19.4669 11.1409 18.362V18.362C10.7989 17.6981 10.0272 17.3785 9.31594 17.6061V17.6061C8.13217 17.9849 7.01515 16.8678 7.3939 15.6841V15.6841C7.62149 14.9728 7.30187 14.2011 6.63797 13.8591V13.8591C5.5331 13.2899 5.5331 11.7101 6.63797 11.1409V11.1409C7.30187 10.7989 7.62149 10.0272 7.3939 9.31594V9.31594C7.01515 8.13217 8.13217 7.01515 9.31594 7.3939V7.3939C10.0272 7.62149 10.7989 7.30187 11.1409 6.63797V6.63797Z" fill="#F6F6F9" stroke="#3D435C" stroke-width="2"/>
</svg>
