<?xml version="1.0" encoding="utf-8"?>
<!-- Generator: Adobe Illustrator 26.0.0, SVG Export Plug-In . SVG Version: 6.00 Build 0)  -->
<svg version="1.1" xmlns="http://www.w3.org/2000/svg" xmlns:xlink="http://www.w3.org/1999/xlink" x="0px" y="0px"
	 viewBox="0 0 24 24" style="enable-background:new 0 0 24 24;" xml:space="preserve">
<style type="text/css">
	.st0{fill:none;stroke:#FFFFFF;stroke-width:2.126;}
</style>
<g id="Слой_2">
</g>
<g id="_Слой_1">
	<path class="st0" d="M13.2,4.9l1.3,3.1c0.1,0.5,0.7,0.8,1.2,0.8L19,9.1c1.2,0.1,1.7,1.6,0.8,2.4l-2.5,2.2c-0.4,0.3-0.5,0.8-0.4,1.3
		l0.8,3.3c0.3,1.2-1,2.1-2,1.4L12.8,18c-0.4-0.3-0.9-0.3-1.4,0l-2.9,1.7c-1,0.7-2.4-0.3-2-1.4L7.3,15c0.1-0.5,0-1-0.4-1.3l-2.7-2.2
		c-0.9-0.8-0.4-2.2,0.8-2.4l3.3-0.3c0.5,0,0.9-0.4,1.2-0.8l1.3-3C11.2,3.8,12.8,3.8,13.2,4.9L13.2,4.9z"/>
</g>
</svg>
