<?xml version="1.0" encoding="utf-8"?>
<!-- Generator: Adobe Illustrator 26.0.0, SVG Export Plug-In . SVG Version: 6.00 Build 0)  -->
<svg version="1.1" id="_Слой_1" xmlns="http://www.w3.org/2000/svg" xmlns:xlink="http://www.w3.org/1999/xlink" x="0px"
	 y="0px" viewBox="0 0 24 24" style="enable-background:new 0 0 24 24;" xml:space="preserve">
<style type="text/css">
	.st0{fill:none;stroke:#9B9B9B;stroke-width:0.5;}
	.st1{fill:#FFFFFF;}
</style>
<g>
	<path class="st0" d="M10.3,1h3.5c5.1,0,9.3,4.2,9.3,9.3v3.5c0,5.1-4.2,9.3-9.3,9.3h-3.5C5.2,23,1,18.8,1,13.7v-3.5
		C1,5.2,5.2,1,10.3,1z"/>
	<path class="st1" d="M12,12.8l-2.8,2.8c-0.1,0.1-0.2,0.2-0.4,0.2c-0.2,0-0.3-0.1-0.4-0.2c-0.1-0.1-0.2-0.2-0.2-0.4
		c0-0.2,0.1-0.3,0.2-0.4l2.8-2.8L8.4,9.2C8.2,9,8.2,8.9,8.2,8.8c0-0.2,0.1-0.3,0.2-0.4s0.2-0.2,0.4-0.2c0.2,0,0.3,0.1,0.4,0.2
		l2.8,2.8l2.8-2.8c0.1-0.1,0.2-0.2,0.4-0.2c0.2,0,0.3,0.1,0.4,0.2s0.2,0.2,0.2,0.4c0,0.2-0.1,0.3-0.2,0.4L12.8,12l2.8,2.8
		c0.1,0.1,0.2,0.2,0.2,0.4c0,0.2-0.1,0.3-0.2,0.4c-0.1,0.1-0.2,0.2-0.4,0.2s-0.3-0.1-0.4-0.2L12,12.8z"/>
</g>
</svg>
