<svg width="24" height="24" viewBox="0 0 24 24" fill="none" xmlns="http://www.w3.org/2000/svg">
<g clip-path="url(#clip0_653_6880)">
<path d="M12 24C18.6276 24 24 18.6276 24 12C24 5.3724 18.6276 0 12 0C5.3724 0 0 5.3724 0 12C0 18.6276 5.3724 24 12 24Z" fill="white"/>
<path d="M12 0C18.6276 0 24 5.3724 24 12C24 15.0618 22.8511 17.8536 20.9639 19.9736L17.335 16.3457C17.5102 15.8343 17.5996 15.2974 17.5996 14.7568V13.4004C17.5996 13.2485 17.5504 13.0999 17.459 12.9785C17.3676 12.8573 17.2387 12.7694 17.0928 12.7275C17.4261 12.0528 17.5995 11.3102 17.5996 10.5576V9.2002C17.5996 9.08293 17.5709 8.96718 17.5146 8.86426C17.4584 8.76132 17.3771 8.6737 17.2783 8.61035C17.1796 8.54703 17.0662 8.5102 16.9492 8.50195C16.8323 8.49374 16.715 8.51465 16.6084 8.56348L16.5664 8.58301C16.7869 8.01664 16.9002 7.41345 16.9004 6.80566V5.7002C16.9003 5.5869 16.872 5.4753 16.8193 5.375C16.7666 5.27464 16.6901 5.18834 16.5967 5.12402C16.5033 5.05978 16.3957 5.0184 16.2832 5.00488C16.1709 4.99145 16.0569 5.0057 15.9512 5.0459L14.4561 5.61523C14.3973 5.63744 14.3382 5.66109 14.2803 5.68555C14.2539 4.42692 13.7918 3.21573 12.9727 2.25977L12.5322 1.74414C12.4665 1.66732 12.3848 1.60578 12.293 1.56348C12.2011 1.52117 12.1011 1.49902 12 1.49902C11.8989 1.49902 11.7989 1.52117 11.707 1.56348C11.6152 1.60578 11.5335 1.66732 11.4678 1.74414L11.0273 2.25977C10.2078 3.21589 9.74507 4.42652 9.71875 5.68555C9.66114 5.66112 9.60245 5.63841 9.54395 5.61621L8.04883 5.0459C7.94301 5.00562 7.82922 4.99142 7.7168 5.00488C7.60416 5.01845 7.49574 5.05865 7.40234 5.12305C7.30911 5.18735 7.23337 5.27378 7.18066 5.37402C7.12794 5.47448 7.09955 5.58675 7.09961 5.7002V6.80566C7.09961 7.42586 7.21729 8.02721 7.43359 8.58301L7.3916 8.56348C7.28504 8.51465 7.16771 8.49374 7.05078 8.50195C6.9338 8.5102 6.82039 8.54703 6.72168 8.61035C6.62295 8.6737 6.54161 8.76132 6.48535 8.86426C6.42914 8.96718 6.40038 9.08293 6.40039 9.2002V10.5576C6.40047 11.3102 6.57392 12.0528 6.90723 12.7275C6.76131 12.7694 6.63243 12.8573 6.54102 12.9785C6.44959 13.0999 6.40041 13.2485 6.40039 13.4004V14.7568C6.40058 15.6943 6.66968 16.6123 7.17578 17.4014C7.68179 18.1903 8.40314 18.8178 9.25488 19.209L11.2998 20.1494V21.7998H12.7002V20.1484L14.7451 19.21C15.5054 18.8608 16.1638 18.3222 16.6572 17.6465L19.9736 20.9639C17.8536 22.8511 15.0618 24 12 24C5.3724 24 0 18.6276 0 12C1.2252e-07 8.84894 1.2158 5.9829 3.20215 3.8418L4.85547 5.49512C4.98746 5.62245 5.16426 5.693 5.34766 5.69141C5.53104 5.68977 5.70621 5.61595 5.83594 5.48633C5.96572 5.35654 6.03942 5.18061 6.04102 4.99707C6.0425 4.81368 5.97214 4.63681 5.84473 4.50488L4.21289 2.87305C6.30901 1.08294 9.02733 1.1558e-07 12 0ZM9.26074 15.1631C9.8692 15.4426 10.3847 15.8904 10.7461 16.4541C11.1075 17.0179 11.2999 17.674 11.2998 18.3438V18.6084L9.83887 17.9375C9.23054 17.658 8.71491 17.21 8.35352 16.6465C7.99209 16.0828 7.79989 15.4264 7.7998 14.7568V14.4922L9.26074 15.1631ZM16.2002 14.7578C16.2 15.4273 16.0079 16.083 15.6465 16.6465C15.2851 17.21 14.7694 17.6581 14.1611 17.9375L12.7002 18.6084V17.6748C12.7002 17.2046 12.835 16.7444 13.0889 16.3486C13.3426 15.953 13.7047 15.6385 14.1318 15.4424L16.2002 14.4922V14.7578ZM9.26074 10.9619C9.86943 11.2415 10.3856 11.69 10.7471 12.2539C11.1084 12.8178 11.3 13.4738 11.2998 14.1436V14.4092L9.83887 13.7383C9.23055 13.4588 8.71491 13.0108 8.35352 12.4473C7.99209 11.8836 7.79989 11.2272 7.7998 10.5576V10.292L9.26074 10.9619ZM16.2002 10.5576C16.2001 11.2271 16.0079 11.8827 15.6465 12.4463C15.2851 13.0098 14.7695 13.4578 14.1611 13.7373L12.7002 14.4082V13.4746C12.7003 12.5144 13.2599 11.6416 14.1318 11.2412L16.2002 10.292V10.5576ZM9.0459 6.92383C9.70868 7.17632 10.2791 7.62405 10.6816 8.20801C11.0841 8.79208 11.2998 9.48503 11.2998 10.1943V10.2842L10.7539 10.0762C10.0912 9.82365 9.52065 9.37595 9.11816 8.79199C8.7157 8.20792 8.49999 7.51497 8.5 6.80566V6.71582L9.0459 6.92383ZM15.5 6.80566C15.5 7.51497 15.2843 8.20792 14.8818 8.79199C14.4793 9.37595 13.9088 9.82365 13.2461 10.0762L12.7002 10.2842V10.1943C12.7002 9.48503 12.9159 8.79208 13.3184 8.20801C13.7209 7.62405 14.2913 7.17632 14.9541 6.92383L15.5 6.71582V6.80566ZM12 3.2793C12.3768 3.75137 12.6425 4.30211 12.7783 4.89062C12.9141 5.47923 12.917 6.09117 12.7852 6.68066C12.4814 6.97606 12.2177 7.309 12 7.6709C11.7822 7.30849 11.518 6.97536 11.2148 6.68066C11.083 6.09117 11.0859 5.47923 11.2217 4.89062C11.3575 4.30211 11.6232 3.75137 12 3.2793Z" fill="#3D435C"/>
</g>
<defs>
<clipPath id="clip0_653_6880">
<rect width="24" height="24" fill="white"/>
</clipPath>
</defs>
</svg>
