<svg width="24" height="24" viewBox="0 0 24 24" fill="none" xmlns="http://www.w3.org/2000/svg">
<g clip-path="url(#clip0_653_6872)">
<path d="M12 24C18.6276 24 24 18.6276 24 12C24 5.3724 18.6276 0 12 0C5.3724 0 0 5.3724 0 12C0 18.6276 5.3724 24 12 24Z" fill="#667099"/>
<path d="M13.873 9.847V7M13.873 9.847V11.4715L13.894 11.5M13.873 9.847C13.873 10.5325 13.873 11.0665 13.894 11.5M13.894 11.5C13.921 12.04 13.9795 12.4255 14.1115 12.7585C14.368 13.405 14.815 13.924 15.373 14.224C15.8875 14.5 16.552 14.5 17.878 14.5H19.0585C19.1875 14.5 19.2505 14.5 19.2925 14.497C20.2465 14.4235 20.803 13.2145 20.3275 12.253L20.2 12.0235L20.17 11.974L20.098 11.8495C19.456 10.783 18.2935 10.3195 17.2225 10.705L17.101 10.75M13.873 11.47V11.5C13.873 12.1345 13.873 12.625 13.855 13.0225M13.855 13.0225C13.8325 13.5025 13.7845 13.8475 13.6765 14.1475C13.414 14.8825 12.9115 15.4675 12.28 15.772C11.8045 16 11.203 16 10 16M13.855 13.0225L10.645 9.25M7 7V13C7 13.7956 6.68393 14.5587 6.12132 15.1213C5.55871 15.6839 4.79565 16 4 16" stroke="white" stroke-width="1.5" stroke-linecap="round" stroke-linejoin="round"/>
</g>
<defs>
<clipPath id="clip0_653_6872">
<rect width="24" height="24" fill="white"/>
</clipPath>
</defs>
</svg>
