<svg width="229" height="60" viewBox="0 0 229 60" fill="none" xmlns="http://www.w3.org/2000/svg">
<path d="M30.0587 0C39.02 0 43.5029 1.19867 47.0383 2.66236C51.7507 4.6126 55.496 8.34698 57.45 13.0544C58.9125 16.5831 60.1174 21.0575 60.1174 30.0018C60.1174 38.9463 58.9165 43.4205 57.45 46.9492C55.496 51.6529 51.7548 55.3913 47.0383 57.3376C43.5029 58.8013 39.0201 60 30.0587 60C21.0975 60 16.6145 58.8013 13.0792 57.3376C8.36672 55.3913 4.62136 51.6528 2.66741 46.9492C1.20491 43.4205 0 38.9462 0 30.0018L0.00364525 29.9982C0.00364525 21.0539 1.2046 16.5795 2.67106 13.0508C4.62504 8.34711 8.36719 4.60901 13.0837 2.65872C16.6151 1.19901 21.0976 1.84287e-05 30.0587 0ZM219.768 26.6363C221.845 26.6363 223.621 26.8988 225.097 27.4231C226.573 27.9225 227.699 28.4466 228.474 28.9958V35.513C228.074 34.9388 227.574 34.3768 226.973 33.8275C226.398 33.2783 225.735 32.7912 224.985 32.3667C224.259 31.9423 223.446 31.605 222.545 31.3553C221.67 31.0807 220.744 30.9432 219.768 30.9432C218.342 30.9432 217.054 31.1687 215.904 31.6182C214.753 32.0676 213.777 32.692 212.976 33.491C212.176 34.2899 211.563 35.2633 211.137 36.4117C210.712 37.5353 210.499 38.7841 210.499 40.1574C210.499 41.4307 210.687 42.6294 211.063 43.753C211.463 44.8516 212.038 45.8132 212.789 46.6373C213.564 47.4613 214.528 48.1235 215.678 48.6229C216.829 49.0972 218.155 49.3465 219.656 49.3715C220.807 49.3714 221.857 49.2463 222.808 48.9967C223.783 48.747 224.659 48.4106 225.435 47.9862C226.236 47.5617 226.936 47.0615 227.536 46.4872C228.137 45.9129 228.625 45.2884 229 44.6143V50.3829C228.675 50.7825 228.212 51.1823 227.611 51.5818C227.036 51.9562 226.347 52.306 225.547 52.6305C224.747 52.93 223.846 53.1794 222.846 53.3791C221.87 53.5789 220.819 53.6793 219.694 53.6793C217.542 53.6793 215.591 53.3666 213.839 52.7424C212.088 52.1182 210.587 51.2314 209.337 50.0828C208.111 48.9092 207.147 47.4862 206.447 45.8132C205.771 44.1402 205.433 42.2425 205.433 40.1201C205.433 38.1475 205.771 36.3369 206.447 34.6889C207.122 33.041 208.086 31.6178 209.337 30.4193C210.587 29.2209 212.088 28.297 213.839 27.6478C215.616 26.9736 217.592 26.6364 219.768 26.6363ZM136.254 26.6736C137.73 26.6736 139.068 26.8111 140.269 27.0857C141.47 27.3354 142.496 27.7352 143.347 28.2845C144.222 28.8088 144.885 29.4827 145.335 30.3065C145.81 31.1305 146.049 32.1169 146.049 33.2654C146.049 36.2868 144.498 38.3474 141.396 39.4461C145.398 40.0454 147.399 42.0928 147.399 45.5885C147.399 46.7121 147.174 47.7733 146.724 48.7721C146.274 49.7459 145.598 50.5948 144.697 51.3189C143.797 52.018 142.671 52.5799 141.32 53.0044C139.994 53.4288 138.455 53.6411 136.704 53.6411C135.503 53.6411 134.377 53.5416 133.327 53.3418C132.301 53.167 131.363 52.9292 130.513 52.6296C129.687 52.305 128.962 51.9554 128.336 51.5809C127.736 51.1814 127.26 50.7824 126.91 50.3829V44.6143C127.31 45.2884 127.823 45.9129 128.449 46.4872C129.074 47.0615 129.8 47.5608 130.626 47.9853C131.451 48.4097 132.377 48.747 133.402 48.9967C134.453 49.2214 135.579 49.3342 136.78 49.3342C137.58 49.3342 138.331 49.247 139.032 49.0722C139.732 48.8974 140.332 48.6473 140.832 48.3227C141.358 47.9732 141.771 47.5487 142.071 47.0493C142.371 46.55 142.521 45.9633 142.521 45.2892C142.521 44.1158 142.059 43.2535 141.133 42.7042C140.232 42.1549 138.756 41.8801 136.704 41.8801H132.727V38.0226H136.667C137.517 38.0226 138.23 37.9353 138.806 37.7606C139.381 37.5608 139.844 37.2984 140.194 36.9738C140.545 36.6492 140.795 36.2749 140.945 35.8505C141.12 35.426 141.208 34.9637 141.208 34.4643C141.208 33.8651 141.082 33.3533 140.832 32.9289C140.582 32.4794 140.232 32.1175 139.782 31.8428C139.331 31.5682 138.806 31.3683 138.206 31.2434C137.606 31.0936 136.954 31.0055 136.254 30.9805C135.253 30.9556 134.303 31.0684 133.402 31.318C132.527 31.5677 131.713 31.9173 130.963 32.3667C130.237 32.7912 129.575 33.2783 128.974 33.8275C128.399 34.3769 127.923 34.9387 127.548 35.513V28.9958C128.299 28.4465 129.412 27.9225 130.888 27.4231C132.364 26.9238 134.153 26.6737 136.254 26.6736ZM8.70759 19.3642C8.17263 19.3246 7.90667 19.3051 7.70059 19.4633C7.49472 19.6216 7.44695 19.8831 7.34791 20.4011C7.04672 21.9795 6.81308 23.9179 6.69814 26.3862C6.67041 26.9755 6.65851 27.2723 6.82482 27.4741C6.99521 27.6758 7.30064 27.7191 7.91475 27.8061C20.5106 29.5823 30.4754 39.5282 32.255 52.1002C32.3422 52.7133 32.3855 53.022 32.5876 53.1881C32.7937 53.3542 33.0871 53.3422 33.6775 53.3145V53.3109C36.1467 53.1962 38.0886 52.9621 39.674 52.6614C40.1932 52.5625 40.455 52.5151 40.6135 52.3094C40.7719 52.1038 40.7525 51.839 40.7129 51.3053C39.4287 34.259 25.7901 20.6459 8.70759 19.3642ZM90.1853 31.3553H76.2258V36.0378H81.3665C84.994 36.0378 87.7087 36.7247 89.51 38.0981C91.3361 39.4714 92.2494 41.6061 92.2494 44.5025C92.2494 45.9507 91.9865 47.2241 91.4611 48.3227C90.9608 49.3963 90.2231 50.3079 89.2475 51.0569C88.2969 51.7811 87.1455 52.3306 85.7946 52.7051C84.4438 53.0796 82.9304 53.2672 81.2544 53.2672H71.5353V27.0484H90.1853V31.3553ZM102.098 46.6373L116.433 27.0484H121.536V53.2672H116.846V33.3782L102.435 53.2672H97.4074V27.0484H102.098V46.6373ZM157.471 37.6105H171.843V27.0484H176.534V53.2672H171.843V41.9183H157.471V53.2672H152.781V27.0484H157.471V37.6105ZM201.542 31.3553H188.07V37.6105H200.153V41.9183H188.07V48.9594H201.955V53.2672H183.38V27.0484H201.542V31.3553ZM8.35856 34.587C7.62964 34.4368 7.26525 34.3617 7.01164 34.587C6.75405 34.8165 6.78936 35.1961 6.85671 35.9514C7.23324 40.1922 8.01431 42.5662 8.78323 44.4215C10.0634 47.507 12.5203 49.9602 15.6117 51.2379C17.4705 52.0054 19.849 52.7801 24.0978 53.1599C24.8588 53.2272 25.2398 53.2633 25.4657 53.0062C25.6915 52.7491 25.6163 52.3887 25.4657 51.6609C23.6901 43.1002 16.9355 36.3593 8.35856 34.587ZM30.0633 6.60269C21.7998 6.60269 18.2044 7.69003 15.6162 8.76205C14.2489 9.32775 13.0077 10.1235 11.9336 11.1006C11.2006 11.7729 10.832 12.1094 10.9549 12.5168C11.0778 12.9281 11.6208 13.015 12.7064 13.189C30.2368 16.0096 44.0819 29.8278 46.908 47.3249C47.0824 48.4088 47.1696 48.9514 47.5778 49.074C47.9858 49.1963 48.3225 48.8278 48.9921 48.0962H48.9967C49.9755 47.0243 50.7721 45.7824 51.3388 44.4179C52.4129 41.8346 53.5031 38.2463 53.5031 29.9982C53.5031 21.75 52.4129 18.1617 51.3388 15.5785C50.0586 12.4929 47.6009 10.0398 44.5094 8.76205C41.9213 7.69006 38.3264 6.60273 30.0633 6.60269ZM76.2258 48.9594H81.2161C82.1417 48.9594 82.98 48.8845 83.7305 48.7348C84.506 48.5849 85.1571 48.3358 85.6825 47.9862C86.2328 47.6366 86.6458 47.1743 86.921 46.6C87.2211 46.0007 87.3711 45.2635 87.3711 44.3897C87.3711 42.8168 86.8452 41.7554 85.7946 41.2061C84.7689 40.6319 83.2424 40.3447 81.2161 40.3447H76.2258V48.9594ZM75.0356 3.48463C75.8538 3.48463 76.6105 3.56292 77.2765 3.71475C77.9548 3.86658 78.5471 4.10829 79.0363 4.42423C79.5337 4.7484 79.9237 5.16752 80.1909 5.664C80.4581 6.16459 80.5946 6.7634 80.5946 7.44861C80.5946 9.03411 79.9046 10.187 78.5387 10.8896C80.3996 11.3711 81.3427 12.5683 81.3428 14.457C81.3428 15.1217 81.2113 15.754 80.9564 16.3407C80.6974 16.9316 80.302 17.4444 79.7881 17.867C79.2784 18.2896 78.6375 18.6264 77.8853 18.8767C77.137 19.1229 76.2606 19.2505 75.2862 19.2505C74.6203 19.2505 73.9871 19.1925 73.4117 19.0859C72.8362 18.9751 72.3055 18.828 71.8369 18.6474C71.3683 18.4669 70.9529 18.2614 70.6076 18.0317C70.2582 17.8019 69.9792 17.5633 69.7737 17.3213L69.7245 17.264V13.1281L70.1063 13.8012C70.316 14.1703 70.5873 14.5109 70.9119 14.8226C71.2408 15.1345 71.6276 15.4092 72.0593 15.6431C72.4951 15.8729 72.9925 16.0575 73.5393 16.1888C74.0859 16.3201 74.6902 16.3862 75.3272 16.3862C75.7465 16.3862 76.1416 16.3368 76.5074 16.2425C76.8651 16.1522 77.1779 16.0124 77.4369 15.8359C77.6917 15.6636 77.8932 15.4417 78.0411 15.1874C78.1849 14.9371 78.2589 14.6333 78.2589 14.2887C78.2588 13.694 78.0452 13.2674 77.6055 12.9925C77.141 12.7012 76.3597 12.5532 75.2826 12.5532H72.9022V9.94361H75.2616C75.7015 9.94361 76.0715 9.89379 76.3634 9.79534C76.647 9.70099 76.8774 9.57011 77.046 9.40604C77.2145 9.24605 77.3379 9.05721 77.416 8.84391C77.4941 8.62643 77.5354 8.38386 77.5354 8.12534C77.5353 7.82183 77.4741 7.55504 77.3549 7.33764C77.2357 7.12026 77.0628 6.94001 76.8491 6.80462C76.623 6.661 76.3551 6.55376 76.0508 6.4799C75.7345 6.40203 75.3894 6.35669 75.0238 6.34437C74.5017 6.33206 74.0038 6.39361 73.5393 6.52902C73.0748 6.66849 72.6434 6.85778 72.257 7.09569C71.8706 7.33777 71.5128 7.60887 71.2045 7.9125C70.8961 8.21205 70.6409 8.52386 70.4435 8.83573L70.0653 9.43878V4.91268L70.1473 4.85083C70.5749 4.52671 71.2081 4.21526 72.0301 3.92396C72.8564 3.63263 73.8681 3.48464 75.0356 3.48463ZM104.28 12.0975L107.939 3.70202H111.08L105.678 15.8077C105.386 16.4683 105.089 17.0219 104.797 17.4486C104.501 17.8834 104.193 18.2362 103.877 18.4946C103.556 18.7614 103.219 18.951 102.873 19.0577C102.532 19.1643 102.162 19.2168 101.775 19.2168C101.434 19.2168 101.101 19.1806 100.793 19.1068C100.489 19.0329 100.23 18.9505 100.028 18.8603L99.9053 18.8066V15.413L100.254 15.7495C100.423 15.9136 100.637 16.049 100.884 16.1434C101.349 16.3279 101.899 16.3649 102.306 16.127C102.47 16.0326 102.618 15.8565 102.754 15.6021L96.3612 3.70202H99.8024L104.28 12.0975ZM115.667 3.70202V9.97635H117.514L122.13 3.70202H125.773L120.136 11.0106L126.67 19.0495H122.854L117.641 12.5823H115.667V19.0495H112.691V3.70202H115.667ZM90.301 3.69747C93.6516 3.69747 95.3495 5.01458 95.3497 7.61597C95.3497 8.50643 95.1693 9.25809 94.8075 9.85719C94.532 10.3167 94.1325 10.6983 93.6145 10.9896C94.2724 11.1948 94.7829 11.5478 95.1282 12.032C95.5597 12.6392 95.7816 13.4638 95.7816 14.4852C95.7816 15.2812 95.642 15.9795 95.3707 16.5581C95.0993 17.1448 94.7007 17.6251 94.1869 17.9944C93.6812 18.3555 93.0641 18.6256 92.3487 18.7939C91.6457 18.958 90.84 19.0449 89.952 19.0449H83.8553V3.69747H90.301ZM86.8316 16.1843H90.116C91.0534 16.1843 91.7444 16.0282 92.1719 15.7204V15.7249C92.5831 15.4295 92.7843 14.9571 92.7843 14.3005C92.7843 13.6442 92.5744 13.2015 92.1428 12.9389C91.6864 12.6599 91.0162 12.5196 90.157 12.5196H86.8316V16.1843ZM86.8316 10.0173H89.931C90.7039 10.0173 91.3165 9.8525 91.7482 9.52429C92.1675 9.20832 92.3733 8.77306 92.3733 8.19447C92.3733 7.66143 92.2007 7.26775 91.8475 6.99291C91.4816 6.70977 90.8563 6.5654 89.993 6.5654H86.8316V10.0173Z" fill="white"/>
</svg>
