<svg width="24" height="24" viewBox="0 0 24 24" fill="none" xmlns="http://www.w3.org/2000/svg">
<g clip-path="url(#clip0_692_2746)">
<path d="M21.9352 17.1597C21.9861 17.2866 22.0073 17.4234 21.9972 17.5596C21.9872 17.6959 21.9461 17.8281 21.8771 17.9463C21.808 18.0646 21.7129 18.1658 21.5987 18.2424C21.4845 18.3191 21.3543 18.3691 21.2178 18.3887C20.796 18.4502 20.2726 18.5248 19.6833 18.6032C18.5611 18.7524 17.6234 19.5357 17.2826 20.6061C17.0623 21.2962 16.8628 21.9042 16.7027 22.3779C16.6596 22.5078 16.5872 22.6264 16.4911 22.7247C16.395 22.823 16.2777 22.8984 16.1479 22.9453C16.0181 22.9922 15.8793 23.0092 15.7419 22.9953C15.6045 22.9813 15.472 22.9366 15.3546 22.8646C14.402 22.2856 13.4585 21.6918 12.5246 21.0836C12.3685 20.9825 12.1859 20.9286 11.9993 20.9286C11.8127 20.9286 11.6302 20.9825 11.474 21.0836C10.3612 21.8109 9.34637 22.4375 8.64407 22.8646C8.52679 22.9363 8.39465 22.9807 8.25756 22.9947C8.12046 23.0086 7.98197 22.9915 7.85246 22.9449C7.72295 22.8983 7.60577 22.8232 7.50972 22.7253C7.41367 22.6274 7.34122 22.5093 7.29782 22.3797C7.05305 21.6487 6.70849 20.6061 6.35074 19.4256C6.29634 19.2506 6.19207 19.0948 6.05045 18.977C5.90883 18.8592 5.73589 18.7845 5.55241 18.7617C4.45282 18.6274 3.48127 18.4913 2.78084 18.3887C2.64429 18.3689 2.51405 18.3187 2.39991 18.2418C2.28577 18.165 2.1907 18.0635 2.12184 17.9451C2.05298 17.8266 2.01212 17.6942 2.00234 17.5579C1.99256 17.4215 2.0141 17.2847 2.06535 17.1578C2.3572 16.423 2.78837 15.3675 3.29486 14.2C3.36796 14.0312 3.39015 13.845 3.35874 13.664C3.32733 13.483 3.24367 13.3148 3.11787 13.1799C2.48001 12.5042 1.85108 11.8203 1.23125 11.1284C1.13944 11.0263 1.0722 10.9049 1.03457 10.7734C0.99695 10.6418 0.989926 10.5035 1.01403 10.3689C1.03813 10.2343 1.09273 10.1068 1.17373 9.9961C1.25473 9.88538 1.36001 9.7943 1.48167 9.72969C2.05217 9.42197 2.8298 9.00981 3.71851 8.56036C3.88226 8.47603 4.018 8.34675 4.1095 8.18799C4.201 8.02923 4.24436 7.84771 4.23441 7.66517C4.17166 6.57618 4.12584 5.48629 4.09696 4.3959C4.09268 4.25927 4.11971 4.12346 4.17604 3.99867C4.23236 3.87388 4.31651 3.76335 4.42216 3.6754C4.5278 3.58745 4.6522 3.52437 4.786 3.49088C4.9198 3.45739 5.05952 3.45438 5.19467 3.48207C5.71622 3.58837 6.3884 3.72824 7.14908 3.89609C7.69434 4.01575 8.26275 3.97895 8.78766 3.79001C9.31257 3.60107 9.77221 3.26782 10.1127 2.82933C10.5627 2.24746 10.9656 1.74019 11.282 1.34482C11.3674 1.23735 11.4764 1.15048 11.6006 1.09076C11.7249 1.03103 11.8612 1 11.9993 1C12.1374 1 12.2738 1.03103 12.398 1.09076C12.5223 1.15048 12.6312 1.23735 12.7167 1.34482C13.033 1.74019 13.4359 2.24746 13.8859 2.82933C14.5788 3.72451 15.7368 4.14226 16.8496 3.89609C17.6102 3.72824 18.2843 3.58837 18.804 3.48207C18.9393 3.45406 19.0792 3.45682 19.2132 3.49016C19.3473 3.5235 19.4719 3.58654 19.5778 3.67452C19.6837 3.76251 19.768 3.87315 19.8244 3.99811C19.8809 4.12306 19.9079 4.25908 19.9036 4.3959C19.8885 4.93487 19.8659 5.6361 19.8283 6.43243C19.8042 6.98194 19.9379 7.52694 20.2138 8.00424C20.4897 8.48155 20.8966 8.8716 21.3873 9.12917C21.8166 9.35297 22.2007 9.55811 22.517 9.72782C23.0404 10.0076 23.1609 10.6864 22.7674 11.1265C22.2967 11.6506 21.6396 12.3761 20.8827 13.1817C20.7569 13.3163 20.6731 13.484 20.6414 13.6647C20.6097 13.8454 20.6313 14.0313 20.7038 14.2C21.2122 15.3693 21.6414 16.423 21.9352 17.1578V17.1597Z" fill="#3D435C" stroke="white" stroke-width="1.5" stroke-linejoin="round"/>
</g>
<defs>
<clipPath id="clip0_692_2746">
<rect width="24" height="24" fill="white"/>
</clipPath>
</defs>
</svg>
