<svg width="24" height="24" viewBox="0 0 24 24" fill="none" xmlns="http://www.w3.org/2000/svg">
<g clip-path="url(#clip0_653_6866)">
<path d="M12 24C18.6276 24 24 18.6276 24 12C24 5.3724 18.6276 0 12 0C5.3724 0 0 5.3724 0 12C0 18.6276 5.3724 24 12 24Z" fill="#667099"/>
<path d="M18.6533 7.18968L18.9816 10.6052C19.1945 12.8209 17.5333 14.7937 15.3176 15.0077C13.1441 15.2162 11.1746 13.6271 10.965 11.4536C10.9152 10.9366 10.9676 10.4148 11.1194 9.9181C11.2712 9.42139 11.5194 8.95944 11.8498 8.55865C12.1801 8.15786 12.5862 7.82607 13.0448 7.58224C13.5034 7.33841 14.0055 7.1873 14.5225 7.13756L18.1643 6.78713C18.2823 6.77601 18.4 6.81213 18.4914 6.88759C18.5829 6.96304 18.6407 7.07167 18.6522 7.18968" stroke="white" stroke-width="1.5" stroke-linecap="round" stroke-linejoin="round"/>
<path d="M14.7546 11.3704C12.814 13.4575 10.8733 18.5786 10.8733 18.5786C10.8733 18.5786 8.10096 11.3704 5.32861 9.70703" stroke="white" stroke-width="1.5" stroke-linecap="round" stroke-linejoin="round"/>
</g>
<defs>
<clipPath id="clip0_653_6866">
<rect width="24" height="24" fill="white"/>
</clipPath>
</defs>
</svg>
