<svg width="31" height="24" viewBox="0 0 31 24" fill="none" xmlns="http://www.w3.org/2000/svg">
<rect x="1" y="1" width="28.8108" height="22" rx="3" fill="#EDEDED" stroke="#888888" stroke-width="2"/>
<path d="M4.54028 5.51367H10.3781" stroke="#939393" stroke-width="2" stroke-linecap="round"/>
<path d="M4.54041 9.08203H13.6215" stroke="#939393" stroke-width="2" stroke-linecap="round"/>
<path d="M20.8806 8.44908C21.3041 7.62702 22.4795 7.62702 22.903 8.44908V8.44908C23.1575 8.94305 23.7317 9.18086 24.2609 9.01152V9.01152C25.1417 8.72971 25.9728 9.56082 25.691 10.4416V10.4416C25.5216 10.9708 25.7594 11.545 26.2534 11.7994V11.7994C27.0755 12.223 27.0755 13.3983 26.2534 13.8219V13.8219C25.7594 14.0764 25.5216 14.6505 25.691 15.1797V15.1797C25.9728 16.0605 25.1417 16.8916 24.2609 16.6098V16.6098C23.7317 16.4404 23.1575 16.6783 22.903 17.1722V17.1722C22.4795 17.9943 21.3041 17.9943 20.8806 17.1722V17.1722C20.6261 16.6783 20.052 16.4404 19.5228 16.6098V16.6098C18.642 16.8916 17.8109 16.0605 18.0927 15.1797V15.1797C18.262 14.6505 18.0242 14.0764 17.5303 13.8219V13.8219C16.7082 13.3983 16.7082 12.223 17.5303 11.7994V11.7994C18.0242 11.545 18.262 10.9708 18.0927 10.4416V10.4416C17.8109 9.56082 18.642 8.72971 19.5228 9.01152V9.01152C20.052 9.18086 20.6261 8.94305 20.8806 8.44908V8.44908Z" fill="#EDEDED" stroke="#939393" stroke-width="2"/>
</svg>
