<svg width="24" height="24" viewBox="0 0 24 24" fill="none" xmlns="http://www.w3.org/2000/svg">
<rect x="1" y="1" width="22" height="22" rx="3" fill="#EDEDED" stroke="#667099" stroke-width="2"/>
<path d="M11.3131 7.96275C11.7366 7.14069 12.912 7.14069 13.3355 7.96275C13.59 8.45672 14.1642 8.69453 14.6934 8.52519C15.5742 8.24339 16.4053 9.07449 16.1235 9.95526C15.9541 10.4845 16.1919 11.0586 16.6859 11.3131C17.508 11.7366 17.508 12.912 16.6859 13.3355C16.1919 13.59 15.9541 14.1641 16.1235 14.6934C16.4053 15.5742 15.5742 16.4053 14.6934 16.1235C14.1642 15.9541 13.59 16.1919 13.3355 16.6859C12.912 17.508 11.7366 17.508 11.3131 16.6859C11.0586 16.1919 10.4845 15.9541 9.95526 16.1235C9.07449 16.4053 8.24339 15.5742 8.52519 14.6934C8.69453 14.1642 8.45672 13.59 7.96275 13.3355C7.14069 12.912 7.14069 11.7366 7.96275 11.3131C8.45672 11.0586 8.69453 10.4845 8.52519 9.95526C8.24339 9.07449 9.07449 8.24339 9.95526 8.52519C10.4845 8.69453 11.0586 8.45672 11.3131 7.96275Z" fill="#EDEDED" stroke="#667099" stroke-width="2"/>
</svg>
